<svg width="3865" height="3930" viewBox="0 0 3865 3930" fill="none" xmlns="http://www.w3.org/2000/svg">
<mask id="mask0_409_3639" style="mask-type:alpha" maskUnits="userSpaceOnUse" x="715" y="593" width="2569" height="2656">
<path d="M3134.56 1387.73C3644.16 2369.16 2748.37 3476.52 1680.47 3206.18C1201.1 3086.97 815.745 2671.39 735.989 2183.62C645.318 1698.37 864.439 1177.01 1274.14 902.479C1835.79 516.289 2614.05 644.739 3016.19 1197.16C3018.7 1199.68 3017.87 1203.87 3014.51 1206.39C3011.99 1208.91 3007.79 1208.07 3005.27 1204.71C2949.86 1133.35 2886.9 1068.71 2818.05 1010.78C2704.72 914.233 2572.07 838.674 2431.86 787.462C1718.25 528.883 934.96 958.728 778.805 1705.08C602.501 2541.27 1313.59 3311.13 2161.53 3196.11C2815.54 3113.83 3301.63 2510.2 3247.9 1853.68C3236.15 1695.01 3194.17 1538.01 3124.49 1393.61C3122.81 1391.09 3124.49 1387.73 3127.01 1386.06C3129.52 1384.38 3132.88 1385.22 3134.56 1387.73Z" fill="black"/>
<path d="M2191.41 2219.7C2215.46 2264.98 2229.61 2321.56 2214.75 2371.79C2203.43 2407.16 2170.9 2433.33 2135.53 2443.23C2053.47 2465.16 1958.68 2430.5 1885.83 2391.59C1795.99 2341.37 1729.5 2257.19 1687.05 2165.24C1684.23 2158.16 1694.13 2152.5 1698.37 2159.58C1713.23 2189.29 1730.2 2218.29 1749.3 2244.46C1768.4 2271.34 1790.33 2296.1 1815.09 2318.03C1887.24 2383.11 1984.86 2423.43 2082.47 2423.43C2182.92 2420.6 2221.12 2367.54 2197.78 2269.93C2194.24 2254.36 2188.58 2238.09 2180.8 2224.65C2176.55 2219 2187.17 2212.63 2191.41 2219.7Z" fill="black"/>
<path d="M2594.31 2808.94H1300.88C1300.88 2808.94 1377.08 2648.34 1410.84 2465.25C1434.36 2338.41 1451.75 2264.25 1517.73 2223.34C1564.27 2194.7 1664 2165.04 1706.96 2149.69C1736.11 2139.46 1742.25 2148.16 1763.22 2142.53C1763.22 2145.09 1763.73 2147.14 1763.73 2149.69C1763.73 2149.69 1818.97 2313.86 1962.68 2372.17C2079.8 2419.73 2149.35 2388.02 2160.09 2335.34C2166.74 2301.59 2145.77 2246.35 2135.03 2228.45C2128.9 2223.34 2124.81 2215.67 2122.76 2208L2118.67 2191.12C2128.39 2189.07 2137.59 2186.52 2146.8 2183.45C2149.87 2182.42 2152.42 2181.4 2155.49 2180.38C2214.31 2195.72 2340.12 2245.33 2395.87 2296.48C2417.86 2316.93 2470.03 2419.22 2503.78 2567.54C2542.65 2735.8 2594.31 2808.94 2594.31 2808.94Z" fill="black"/>
<path d="M2606.07 2815.07C2220.95 2817.63 1680.36 2823.77 1301.39 2822.23C1292.18 2822.23 1285.53 2812 1289.63 2803.82C1335.14 2703.58 1370.94 2596.69 1393.96 2488.77C1396.52 2474.97 1402.14 2447.86 1404.7 2434.05C1416.46 2377.79 1425.67 2322.05 1455.84 2270.39C1466.07 2253.51 1479.37 2237.66 1495.22 2224.87C1510.57 2212.6 1528.47 2203.39 1546.37 2195.21C1603.65 2170.66 1661.44 2151.23 1720.26 2133.33C1734.07 2130.26 1747.87 2133.84 1761.17 2130.77C1768.84 2128.72 1777.03 2134.35 1777.54 2142.53L1778.05 2149.69L1764.24 2136.91C1769.87 2136.91 1774.98 2140.49 1776.51 2145.6C1780.61 2157.36 1786.23 2169.64 1791.86 2181.4C1809.25 2216.69 1830.73 2249.93 1856.81 2279.09C1891.08 2317.95 1934.04 2348.64 1983.14 2366.03C2032.74 2384.44 2121.22 2400.3 2145.77 2340.97C2149.86 2330.23 2149.35 2318.98 2147.82 2307.21C2144.24 2283.18 2136.06 2257.6 2124.29 2236.12L2126.85 2239.19C2118.67 2228.45 2115.6 2215.67 2116.62 2203.39V2192.65V2191.12C2116.62 2190.1 2117.64 2189.07 2118.67 2189.07C2124.8 2187.03 2130.43 2184.47 2136.57 2182.42C2142.19 2179.87 2147.82 2177.31 2153.44 2174.24C2154.98 2173.22 2156.51 2173.73 2158.05 2174.24C2191.8 2182.94 2224.02 2194.7 2256.24 2208C2304.32 2227.94 2351.88 2250.44 2393.31 2282.67C2408.14 2293.41 2418.88 2309.26 2427.58 2325.11C2444.96 2355.8 2458.77 2387.51 2471.05 2419.73C2492.53 2475.99 2508.38 2534.29 2522.19 2593.11C2539.58 2658.06 2560.55 2722.5 2592.77 2781.83C2596.35 2787.97 2599.93 2794.1 2603.51 2800.24L2604.53 2801.26V2801.77C2607.6 2804.33 2608.11 2811.49 2606.07 2815.07ZM2582.54 2802.8C2579.98 2805.35 2580.49 2812.52 2582.54 2815.07V2814.56L2581.52 2813.03C2545.72 2754.21 2523.21 2688.24 2504.8 2622.26C2495.6 2590.04 2488.95 2555.26 2479.74 2522.53C2461.84 2458.09 2439.85 2393.14 2407.63 2334.32C2402 2324.6 2395.87 2313.86 2388.19 2306.19C2373.36 2292.38 2355.97 2281.13 2338.58 2270.39C2309.94 2253.51 2279.26 2238.68 2248.06 2225.9C2216.86 2213.11 2185.15 2201.35 2152.93 2192.65L2160.6 2192.14C2146.8 2193.16 2133.5 2193.68 2120.2 2193.16L2122.25 2190.1C2125.32 2195.21 2128.9 2203.9 2131.96 2208.51C2135.54 2213.11 2139.64 2216.69 2144.24 2218.74C2145.26 2219.76 2146.28 2220.78 2146.8 2221.8C2165.21 2257.09 2183.62 2309.77 2170.32 2349.15C2139.64 2426.38 2036.84 2414.1 1973.93 2390.07C1921.25 2372.17 1873.69 2337.9 1836.86 2295.96C1800.04 2254.02 1770.89 2205.95 1751.45 2153.78L1763.73 2162.48C1756.57 2162.48 1750.94 2157.36 1750.43 2150.2L1749.92 2143.55L1766.29 2155.32C1761.17 2156.85 1755.03 2157.36 1749.41 2157.87C1735.09 2157.36 1725.37 2156.85 1712.07 2161.97C1694.68 2168.1 1676.78 2174.24 1658.88 2179.87C1623.59 2191.63 1588.82 2203.9 1555.57 2218.74C1479.88 2248.91 1457.89 2309.26 1440.5 2384.44C1432.32 2419.22 1425.67 2458.6 1418.51 2493.89C1394.98 2604.36 1359.18 2711.25 1312.64 2814.56L1300.88 2795.64C1671.67 2795.64 2206.63 2799.22 2582.54 2802.8Z" fill="black"/>
<path d="M1918.69 2425.87C1742.25 2346.59 1673.72 2204.93 1687.01 2166.57C1687.01 2166.57 1687.01 2166.06 1687.52 2165.55C1696.73 2146.62 1711.56 2131.28 1729.97 2120.54C1740.2 2114.4 1751.45 2108.78 1760.66 2105.71C1900.28 2070.93 2085.42 2129.75 2147.82 2183.45C2170.32 2210.55 2193.34 2237.66 2202.03 2309.26C2214.31 2412.57 2101.28 2508.21 1918.69 2425.87Z" fill="white"/>
<path d="M1916.14 2431.49C1827.66 2391.6 1744.81 2329.21 1697.75 2242.77C1688.55 2224.87 1680.36 2206.46 1677.81 2185.49C1677.3 2178.33 1676.78 2169.64 1680.36 2162.48C1691.1 2141 1710.54 2124.12 1732.02 2113.89C1748.39 2105.2 1766.29 2099.06 1784.19 2093.43C1809.76 2088.83 1835.33 2087.3 1861.41 2087.81C1946.82 2090.36 2031.72 2112.87 2107.41 2152.25C2113.04 2155.32 2118.67 2158.39 2124.29 2161.97C2126.34 2162.99 2127.87 2164.52 2130.43 2164.01C2132.99 2163.5 2135.03 2164.52 2137.08 2165.55C2143.22 2169.13 2148.33 2173.73 2153.96 2178.84C2167.76 2195.72 2181.57 2213.62 2190.78 2234.08C2199.98 2254.54 2205.1 2276.53 2208.17 2298.01C2216.35 2341.99 2201.52 2391.09 2167.25 2421.26C2097.7 2483.66 1993.36 2466.78 1916.14 2431.49ZM1920.74 2420.75C1978.02 2445.81 2043.49 2461.67 2104.35 2442.23C2153.44 2427.4 2193.85 2382.91 2195.38 2330.74C2195.89 2300.05 2188.73 2267.83 2176.46 2239.7C2169.81 2222.32 2151.4 2200.32 2142.19 2189.07C2136.57 2184.47 2130.43 2180.89 2125.32 2176.29C2124.8 2175.26 2124.29 2174.24 2123.78 2173.22C2122.76 2170.66 2120.71 2170.15 2119.18 2168.61C2114.06 2165.55 2108.44 2162.48 2102.81 2159.41C2058.32 2136.39 2009.22 2123.1 1960.12 2113.38C1902.84 2102.64 1844.02 2099.57 1786.23 2107.75C1778.05 2108.78 1769.35 2107.75 1761.17 2109.8C1755.03 2112.36 1743.78 2117.47 1736.62 2122.59C1718.21 2133.33 1704.4 2149.18 1694.68 2168.1L1694.17 2168.61C1694.17 2169.13 1693.66 2170.15 1693.66 2170.66C1691.1 2192.14 1701.33 2214.13 1711.05 2234.08C1719.74 2250.44 1729.97 2266.3 1741.74 2281.64C1788.79 2342.5 1851.7 2389.56 1920.74 2420.75Z" fill="black"/>
<path d="M1705.44 1872.39C1689.17 1845.51 1668.66 1822.16 1649.56 1796.7C1621.27 1757.79 1600.05 1714.64 1585.9 1669.37C1525.06 1474.85 1558.31 1221.61 1739.4 1101.35C1904.92 989.589 2226.78 1024.96 2370.37 1162.89C2434.04 1220.19 2495.58 1339.74 2482.14 1426.04C2470.11 1487.58 2459.5 1548.41 2461.62 1611.37C2461.62 1642.49 2465.16 1673.62 2465.16 1705.45C2467.28 1769.11 2455.96 1833.48 2431.91 1892.9C2419.89 1922.61 2405.03 1950.91 2388.76 1978.49C2385.93 1982.74 2383.81 1989.1 2382.4 1996.88C2376.74 2019.52 2373.91 2042.16 2368.96 2065.5C2363.3 2090.26 2356.93 2118.55 2335.71 2136.94C2277 2184.34 2198.48 2198.48 2125.62 2192.83C2074.69 2188.58 2025.18 2175.14 1979.2 2153.21C1938.88 2129.16 1912 2090.26 1878.04 2059.13C1874.51 2055.6 1878.75 2049.94 1882.99 2052.06C1907.75 2065.5 1937.46 2089.55 1960.1 2107.23C1984.86 2127.75 2010.32 2136.24 2039.32 2144.72C2068.32 2153.21 2098.03 2159.58 2127.74 2161.7C2193.53 2166.65 2264.27 2154.63 2317.32 2113.6C2331.47 2100.16 2336.42 2078.94 2341.37 2059.13C2347.74 2032.25 2351.27 2003.96 2360.47 1977.79C2361.88 1973.54 2364.71 1967.88 2366.84 1965.05C2383.81 1939.59 2399.37 1912.71 2412.11 1885.12C2438.28 1829.24 2451.72 1768.4 2451.72 1706.86C2451.72 1675.74 2448.89 1644.61 2448.18 1613.49C2447.48 1566.1 2446.77 1518.7 2451.01 1471.31C2453.13 1447.97 2456.67 1426.04 2455.96 1403.4C2446.77 1322.76 2408.57 1243.54 2351.98 1185.53C2229.61 1061.03 1997.59 1025.67 1837.01 1085.08C1647.44 1155.82 1597.92 1347.52 1587.31 1530.73C1580.24 1640.37 1613.49 1747.89 1696.25 1823.58L1729.49 1858.24C1740.81 1870.97 1716.76 1889.36 1705.44 1872.39Z" fill="black"/>
<path d="M2537.08 1132.22C2550.24 1101.53 2550.24 1067.92 2528.31 1038.69C2464.74 954.655 2268.18 1018.23 2158.57 983.153C1994.16 929.811 1790.29 923.234 1670.45 1120.53C1640.49 1170.22 1625.88 1184.1 1583.49 1223.56C1539.65 1264.48 1505.31 1339.74 1502.38 1442.78C1495.81 1649.57 1658.03 1829.33 1658.03 1829.33C1666.07 1840.29 1673.37 1849.79 1679.95 1857.82C1738.41 1927.97 1756.67 2063.16 1739.14 1849.79C1557.19 1779.64 1590.07 1575.77 1678.49 1564.81C1772.02 1553.11 1801.25 1636.42 1806.36 1656.88C1869.21 1616.69 1846.55 1531.19 1839.25 1451.54C1888.2 1429.62 1929.85 1377.01 1951.78 1329.51C1975.89 1363.13 2005.12 1389.43 2040.19 1392.36C2077.46 1396.01 2099.38 1364.59 2106.69 1320.01C2154.92 1383.59 2240.41 1462.5 2374.86 1477.85C2439.17 1485.16 2492.51 1458.12 2528.31 1413.55C2537.81 1415.01 2546.58 1415.74 2555.35 1415.01C2649.61 1405.51 2754.84 1214.79 2537.08 1132.22Z" fill="black"/>
<path d="M1998.03 1720.62C1979.6 1719.86 1965.78 1704.5 1967.32 1686.08L1968.09 1664.59C1968.85 1646.16 1984.21 1632.34 2002.63 1633.88C2021.05 1634.65 2034.87 1650 2033.34 1668.42L2032.57 1689.92C2031.8 1707.57 2016.45 1721.39 1998.03 1720.62Z" fill="black"/>
<path d="M2321.2 1732.14C2304.31 1731.37 2291.26 1716.79 2292.03 1699.9L2292.8 1679.94C2293.57 1663.05 2308.15 1650 2325.04 1650.77C2341.93 1651.54 2354.98 1666.12 2354.21 1683.01L2353.44 1702.97C2352.68 1719.86 2338.09 1732.91 2321.2 1732.14Z" fill="black"/>
<path d="M2067.11 1679.17C2041.78 1662.28 2014.15 1650.77 1983.44 1656.91C1973.46 1658.44 1963.48 1661.51 1957.34 1668.42C1955.04 1671.49 1949.66 1670.73 1949.66 1666.12C1950.43 1650.77 1963.48 1640.79 1975.76 1634.65C1999.56 1622.36 2032.57 1624.67 2054.06 1640.79C2061.74 1645.39 2087.84 1673.8 2074.02 1679.94C2070.95 1681.47 2069.42 1680.71 2067.11 1679.17Z" fill="black"/>
<path d="M2286.66 1683.01C2286.66 1650.77 2326.58 1639.25 2351.14 1650.77C2364.96 1656.91 2374.94 1669.19 2378.78 1683.78C2380.31 1688.38 2373.4 1692.22 2370.33 1688.38C2357.28 1673.03 2335.02 1665.35 2317.37 1674.56C2311.99 1677.64 2311.23 1679.94 2309.69 1683.01C2309.69 1698.36 2287.43 1697.59 2286.66 1683.01Z" fill="black"/>
<path d="M2103.96 1552.51C2120.08 1557.88 2136.2 1543.3 2133.13 1525.64C2131.6 1516.43 2127.76 1507.22 2120.08 1500.31C2097.05 1479.58 2001.86 1461.16 1944.29 1488.03C1893.63 1512.59 2030.27 1527.94 2103.96 1552.51Z" fill="black"/>
<path d="M2333.49 1564.79C2320.44 1569.4 2306.62 1555.58 2308.93 1539.46C2309.69 1531.02 2312.76 1522.57 2318.9 1516.43C2337.33 1498.01 2400.28 1483.42 2440.19 1511.82C2474.74 1535.62 2393.37 1542.53 2333.49 1564.79Z" fill="black"/>
<path d="M2292.83 2109.41C2303.11 2056.46 2306.54 2002.84 2297.63 1949.88C2294.2 1929.78 2281.87 1896.26 2262.68 1911.01C2255.14 1917.04 2216.08 1929.11 2208.54 1929.78C2186.61 1931.79 2170.16 1929.11 2154.4 1917.04C2136.59 1902.97 2136.59 1896.93 2132.47 1895.59C2060.52 1872.13 1970.06 1848.68 1940.59 1943.18C1916.61 2020.26 1856.3 2096 1811.76 2020.93C1777.49 1963.96 1779.55 1855.38 1774.75 1832.59C1763.1 1776.29 1746.65 1748.81 1737.06 1756.85C1737.06 1774.95 1743.23 1988.76 1743.91 2000.15C1748.71 2059.14 1756.25 2077.9 1783.66 2116.11C1811.07 2154.31 1907.01 2258.2 2031.74 2266.92C2157.14 2275.63 2226.36 2265.58 2296.26 2187.16C2359.31 2116.11 2361.36 1968.65 2361.36 1968.65C2330.52 2057.8 2309.28 2087.29 2292.83 2109.41ZM2010.49 1958.6C2046.13 1920.39 2098.21 1964.63 2154.4 1968.65C2209.91 1972.67 2232.53 1938.49 2236.64 1998.81C2238.01 2013.56 2240.06 2038.36 2239.38 2055.12C2239.38 2055.79 2239.38 2056.46 2239.38 2057.13C2237.32 2075.89 2231.16 2096.67 2211.97 2108.07C2171.54 2132.87 2106.43 2126.83 2064.63 2118.79C2006.38 2107.4 1994.04 2081.26 1991.3 2069.19C1987.19 2017.58 1996.1 1974.01 2010.49 1958.6Z" fill="black"/>
<path d="M2288.55 1751.63C2288.55 1751.63 2295.28 1789.81 2339.64 1808.9C2350.86 1813.39 2362.66 1806.09 2362.66 1793.74C2362.09 1793.74 2291.35 1756.13 2288.55 1751.63Z" fill="black"/>
<path d="M1941.58 1751.63C1941.58 1751.63 1962.35 1798.79 2024.67 1810.02C2086.99 1821.81 2143.69 1776.9 2170.08 1701.67C2170.08 1701.67 2148.75 1771.28 2063.41 1784.2C1979.19 1798.23 1941.58 1751.63 1941.58 1751.63Z" fill="black"/>
<path d="M2182.44 1646.65C2180.75 1726.93 2116.19 1791.5 2038.15 1791.5C1960.11 1791.5 1897.79 1726.93 1897.79 1646.65C1898.35 1565.8 1962.91 1499.55 2042.08 1499.55C2121.24 1499.55 2184.68 1565.8 2182.44 1646.65Z" stroke="black" stroke-width="3" stroke-miterlimit="10" stroke-linecap="round" stroke-linejoin="round"/>
<path d="M2259.35 1628.12C2268.33 1555.69 2315.49 1498.99 2371.08 1498.99C2431.15 1498.99 2477.19 1565.24 2473.82 1646.08C2470.45 1726.37 2419.92 1790.93 2360.97 1790.93C2339.07 1790.93 2319.42 1782.51 2303.14 1767.35" stroke="black" stroke-width="3" stroke-miterlimit="10" stroke-linecap="round" stroke-linejoin="round"/>
<path d="M1899.47 1630.92H1819.74" stroke="black" stroke-width="3" stroke-miterlimit="10" stroke-linecap="round" stroke-linejoin="round"/>
<path d="M2182.99 1630.92C2182.99 1630.92 2249.81 1605.1 2258.23 1630.92" stroke="black" stroke-width="3" stroke-miterlimit="10" stroke-linecap="round" stroke-linejoin="round"/>
<path d="M2173.02 2037.13C2144.26 2064.54 2089.89 2042.52 2075.51 2009.27C2073.71 2005.22 2078.21 2001.63 2081.8 2003.43C2089.44 2007.47 2096.18 2011.51 2103.37 2014.66C2124.04 2024.1 2145.61 2031.74 2168.52 2029.49C2173.02 2028.59 2176.16 2033.98 2173.02 2037.13Z" fill="black"/>
</mask>
<g mask="url(#mask0_409_3639)">
<rect x="198" y="497" width="3470" height="3394" fill="#D9D9D9"/>
</g>
</svg>
